<svg width="11" height="11" viewBox="0 0 11 11" fill="none" xmlns="http://www.w3.org/2000/svg">
<g clip-path="url(#clip0_3_28)">
<path d="M0.916667 0.916504H10.0833V10.0832H0.916667V0.916504ZM8.9375 9.1665H9.16667V1.83317H1.83333V9.1665H2.0625C2.0625 8.55872 2.30394 7.97582 2.73371 7.54605C3.16348 7.11628 3.74638 6.87484 4.35417 6.87484H6.64583C7.25362 6.87484 7.83652 7.11628 8.26629 7.54605C8.69606 7.97582 8.9375 8.55872 8.9375 9.1665ZM5.5 3.20817C5.19611 3.20817 4.90466 3.32889 4.68977 3.54378C4.47489 3.75866 4.35417 4.05011 4.35417 4.354C4.35417 4.6579 4.47489 4.94934 4.68977 5.16423C4.90466 5.37912 5.19611 5.49984 5.5 5.49984C5.80389 5.49984 6.09534 5.37912 6.31023 5.16423C6.52511 4.94934 6.64583 4.6579 6.64583 4.354C6.64583 4.05011 6.52511 3.75866 6.31023 3.54378C6.09534 3.32889 5.80389 3.20817 5.5 3.20817ZM3.4375 4.354C3.4375 3.80699 3.6548 3.28239 4.04159 2.8956C4.42839 2.5088 4.95299 2.2915 5.5 2.2915C6.04701 2.2915 6.57161 2.5088 6.95841 2.8956C7.3452 3.28239 7.5625 3.80699 7.5625 4.354C7.5625 4.90101 7.3452 5.42562 6.95841 5.81241C6.57161 6.1992 6.04701 6.4165 5.5 6.4165C4.95299 6.4165 4.42839 6.1992 4.04159 5.81241C3.6548 5.42562 3.4375 4.90101 3.4375 4.354ZM4.35417 7.7915C3.98949 7.7915 3.63976 7.93637 3.38189 8.19423C3.12403 8.45209 2.97917 8.80183 2.97917 9.1665H8.02083C8.02083 8.80183 7.87597 8.45209 7.6181 8.19423C7.36024 7.93637 7.01051 7.7915 6.64583 7.7915H4.35417Z" fill="white" fill-opacity="0.8"/>
</g>
<defs>
<clipPath id="clip0_3_28">
<rect width="11" height="11" fill="white"/>
</clipPath>
</defs>
</svg>
