<svg width="11" height="11" viewBox="0 0 11 11" fill="none" xmlns="http://www.w3.org/2000/svg">
<path d="M5.5 7.79183C5.25688 7.79183 5.02373 7.69525 4.85182 7.52334C4.67991 7.35144 4.58333 7.11828 4.58333 6.87516C4.58333 6.36641 4.99125 5.9585 5.5 5.9585C5.74311 5.9585 5.97627 6.05507 6.14818 6.22698C6.32009 6.39889 6.41667 6.63205 6.41667 6.87516C6.41667 7.11828 6.32009 7.35144 6.14818 7.52334C5.97627 7.69525 5.74311 7.79183 5.5 7.79183ZM8.25 9.16683V4.5835H2.75V9.16683H8.25ZM8.25 3.66683C8.49311 3.66683 8.72627 3.76341 8.89818 3.93532C9.07009 4.10722 9.16667 4.34038 9.16667 4.5835V9.16683C9.16667 9.40994 9.07009 9.6431 8.89818 9.81501C8.72627 9.98692 8.49311 10.0835 8.25 10.0835H2.75C2.50688 10.0835 2.27373 9.98692 2.10182 9.81501C1.92991 9.6431 1.83333 9.40994 1.83333 9.16683V4.5835C1.83333 4.07475 2.24125 3.66683 2.75 3.66683H3.20833V2.75016C3.20833 2.14237 3.44978 1.55948 3.87955 1.12971C4.30932 0.699939 4.89221 0.458496 5.5 0.458496C5.80095 0.458496 6.09894 0.517772 6.37698 0.632939C6.65502 0.748106 6.90765 0.916909 7.12045 1.12971C7.33325 1.34251 7.50206 1.59514 7.61722 1.87318C7.73239 2.15122 7.79167 2.44922 7.79167 2.75016V3.66683H8.25ZM5.5 1.37516C5.13533 1.37516 4.78559 1.52003 4.52773 1.77789C4.26987 2.03575 4.125 2.38549 4.125 2.75016V3.66683H6.875V2.75016C6.875 2.38549 6.73013 2.03575 6.47227 1.77789C6.21441 1.52003 5.86467 1.37516 5.5 1.37516Z" fill="white" fill-opacity="0.8"/>
</svg>
